<?xml version="1.0" standalone="no"?>
<!DOCTYPE svg PUBLIC "-//W3C//DTD SVG 20010904//EN"
 "http://www.w3.org/TR/2001/REC-SVG-20010904/DTD/svg10.dtd">
<svg version="1.0" xmlns="http://www.w3.org/2000/svg"
 width="1024.000000pt" height="1024.000000pt" viewBox="0 0 1024.000000 1024.000000"
 preserveAspectRatio="xMidYMid meet">

<g transform="translate(0.000000,1024.000000) scale(0.100000,-0.100000)"
fill="#132C46" stroke="none">
<path d="M3600 9718 c0 -7 9 -24 20 -38 11 -14 20 -28 20 -32 0 -5 16 -42 35
-84 19 -41 35 -80 35 -85 0 -5 4 -17 9 -27 18 -36 50 -113 76 -182 9 -25 23
-58 31 -73 8 -16 14 -37 14 -47 0 -10 4 -21 9 -24 5 -3 12 -22 15 -41 4 -19
11 -35 16 -35 6 0 10 -13 10 -29 0 -17 5 -33 10 -36 6 -3 10 -19 10 -35 0 -16
6 -41 14 -57 8 -15 20 -48 27 -73 17 -65 58 -200 70 -235 6 -16 13 -43 16 -60
2 -16 8 -39 13 -50 17 -42 40 -125 40 -147 0 -13 4 -28 9 -33 10 -10 23 -56
41 -143 5 -23 14 -51 20 -61 5 -11 10 -35 10 -53 0 -19 4 -38 10 -44 11 -11
28 -84 37 -159 3 -27 9 -54 13 -60 4 -5 11 -36 14 -67 4 -32 12 -60 17 -63 5
-4 9 -28 9 -54 0 -26 3 -51 7 -55 8 -7 25 -87 42 -191 4 -27 13 -79 20 -115 7
-36 17 -87 22 -115 5 -27 15 -86 24 -131 8 -45 15 -99 15 -120 0 -21 5 -56 10
-76 12 -40 26 -165 40 -333 5 -60 13 -153 19 -205 6 -52 11 -140 11 -195 0
-55 5 -145 11 -200 13 -132 13 -695 -1 -764 -5 -29 -10 -99 -10 -155 0 -55 -5
-141 -10 -191 -6 -49 -15 -146 -21 -215 -5 -69 -14 -156 -20 -195 -5 -38 -12
-88 -14 -110 -3 -36 -9 -86 -30 -245 -7 -52 -30 -168 -51 -253 -8 -32 -12 -62
-9 -67 3 -4 0 -21 -6 -37 -7 -15 -15 -50 -20 -78 -4 -27 -15 -81 -24 -120 -9
-38 -21 -88 -25 -110 -5 -22 -16 -67 -25 -100 -9 -33 -20 -77 -24 -97 -5 -21
-13 -43 -18 -50 -6 -7 -13 -26 -16 -43 -14 -76 -25 -116 -34 -127 -6 -7 -13
-26 -16 -43 -12 -68 -30 -131 -38 -139 -5 -6 -9 -21 -9 -34 0 -13 -7 -30 -15
-38 -8 -9 -15 -26 -15 -39 0 -13 -4 -27 -10 -30 -5 -3 -10 -21 -10 -40 0 -19
-4 -37 -10 -40 -14 -8 -13 -45 1 -45 14 0 105 25 199 55 41 13 129 40 195 60
66 20 140 43 165 51 25 8 53 14 63 14 9 0 25 4 35 9 25 14 118 41 139 41 11 0
24 5 30 11 6 6 29 15 50 19 21 5 63 16 93 25 30 10 72 20 93 22 20 3 40 9 43
14 3 5 19 9 35 9 17 0 40 5 52 12 12 6 40 15 62 19 22 4 65 15 95 25 30 9 75
19 100 21 25 3 51 10 58 16 7 5 36 14 65 19 29 6 70 14 92 19 107 23 161 36
175 41 8 3 60 14 115 24 55 10 104 21 110 26 5 4 24 8 43 8 18 0 70 7 115 15
166 29 283 38 413 31 178 -9 336 -34 358 -56 6 -6 22 -10 37 -10 15 0 30 -4
34 -9 3 -5 19 -12 35 -16 17 -4 30 -11 30 -16 0 -5 7 -9 15 -9 18 0 45 -16
129 -78 34 -24 63 -39 68 -34 10 10 25 86 38 197 5 44 14 112 19 150 17 116
14 695 -4 795 -8 47 -15 105 -15 130 0 25 -4 61 -9 80 -6 19 -12 60 -16 90 -3
31 -10 71 -15 90 -6 19 -10 48 -10 65 0 16 -7 48 -15 70 -8 22 -14 60 -15 86
0 25 -5 50 -12 57 -6 6 -15 33 -20 59 -27 145 -44 216 -59 245 -5 10 -9 30 -9
45 -1 16 -7 39 -15 53 -8 14 -14 35 -15 48 0 12 -4 30 -9 40 -5 9 -17 44 -26
77 -9 33 -20 68 -26 77 -5 10 -9 24 -9 32 0 7 -7 27 -15 42 -8 16 -15 39 -15
52 0 22 -3 29 -34 89 -9 17 -16 38 -16 47 0 9 -4 24 -9 34 -5 9 -17 37 -26 62
-32 84 -37 95 -51 123 -8 16 -14 35 -14 42 0 7 -6 26 -14 42 -8 15 -18 39 -24
53 -16 41 -88 201 -151 332 -22 48 -41 91 -41 97 0 5 -3 11 -7 13 -5 2 -16 21
-27 43 -19 42 -30 63 -83 160 -17 33 -40 76 -50 95 -15 30 -38 71 -142 242 -9
14 -33 55 -54 90 -20 34 -47 79 -60 99 -12 20 -35 58 -52 85 -16 27 -33 51
-37 52 -4 2 -8 10 -8 17 0 7 -3 15 -7 17 -5 2 -44 57 -88 123 -44 66 -83 125
-87 130 -5 6 -30 39 -56 75 -79 107 -245 325 -251 330 -4 3 -22 25 -41 50 -64
84 -217 264 -365 429 -87 98 -397 411 -480 483 -44 39 -102 92 -130 118 -27
25 -111 94 -185 153 -74 59 -142 113 -150 120 -50 42 -111 88 -149 112 -49 30
-51 32 -102 75 -20 16 -40 30 -43 30 -4 0 -22 11 -40 25 -18 14 -36 25 -41 25
-4 0 -24 12 -44 28 -20 15 -47 33 -61 41 -14 8 -71 43 -128 78 -102 63 -132
74 -132 51z"/>
<path d="M3940 7820 c0 -70 -5 -123 -14 -147 -8 -21 -17 -69 -20 -108 -3 -38
-12 -115 -21 -170 -9 -55 -21 -125 -25 -155 -20 -123 -26 -156 -33 -166 -3 -6
-11 -35 -16 -65 -6 -30 -18 -83 -26 -119 -9 -36 -19 -78 -22 -95 -3 -16 -9
-34 -13 -40 -4 -5 -11 -29 -15 -52 -4 -24 -11 -45 -16 -49 -5 -3 -9 -13 -9
-23 0 -22 -28 -118 -41 -143 -5 -10 -9 -26 -9 -35 0 -19 -27 -106 -41 -135 -5
-10 -9 -26 -9 -36 0 -10 -7 -27 -15 -38 -8 -10 -15 -31 -15 -47 0 -15 -4 -35
-9 -45 -24 -44 -41 -87 -41 -104 0 -18 -2 -25 -33 -86 -9 -19 -17 -41 -17 -51
0 -9 -7 -26 -15 -37 -8 -10 -15 -28 -15 -39 0 -11 -11 -42 -24 -70 -40 -86
-56 -125 -56 -140 0 -8 -4 -15 -10 -15 -5 0 -10 -8 -10 -18 0 -10 -7 -27 -15
-38 -8 -10 -15 -26 -15 -34 0 -8 -18 -53 -41 -100 -23 -47 -46 -96 -51 -110
-6 -14 -14 -33 -19 -42 -5 -10 -9 -24 -9 -32 0 -7 -7 -19 -15 -26 -8 -7 -15
-21 -15 -31 0 -11 -4 -19 -10 -19 -5 0 -10 -5 -10 -11 0 -6 -7 -27 -16 -47
-41 -92 -67 -148 -75 -162 -5 -8 -12 -22 -15 -30 -3 -8 -15 -33 -26 -55 -11
-22 -52 -103 -92 -180 -39 -77 -74 -141 -78 -143 -5 -2 -8 -12 -8 -23 0 -11
-7 -22 -15 -25 -8 -4 -15 -14 -15 -24 0 -11 -4 -21 -9 -24 -5 -4 -20 -27 -33
-54 -26 -49 -61 -112 -109 -194 -16 -27 -29 -51 -29 -53 0 -3 -39 -70 -87
-151 -49 -80 -99 -164 -112 -187 -13 -23 -28 -43 -32 -45 -5 -2 -9 -7 -9 -12
0 -16 -384 -612 -436 -677 -19 -23 -34 -46 -34 -52 0 -6 -4 -11 -10 -11 -5 0
-10 -4 -10 -10 0 -8 -114 -175 -130 -190 -3 -3 -19 -25 -35 -50 -17 -25 -35
-51 -42 -57 -6 -7 -48 -65 -94 -130 -46 -65 -86 -120 -89 -123 -3 -3 -19 -23
-35 -45 -17 -22 -32 -42 -36 -45 -3 -3 -34 -43 -69 -90 -35 -47 -68 -89 -75
-95 -6 -5 -24 -28 -40 -50 -17 -22 -32 -42 -35 -45 -3 -3 -46 -54 -95 -115
-49 -60 -115 -141 -147 -179 -60 -72 -67 -85 -45 -87 15 -2 7 -3 114 17 48 9
115 19 148 24 107 14 325 62 421 91 17 5 41 9 55 9 13 1 35 7 49 15 14 8 40
14 58 15 18 0 40 4 50 9 20 10 76 25 197 51 50 11 99 24 110 29 11 6 36 12 55
14 19 3 62 12 95 22 33 9 81 20 107 25 26 5 56 13 67 19 11 6 33 11 50 11 16
0 33 5 36 10 3 6 20 10 36 10 17 0 40 5 52 12 12 6 40 15 62 19 22 4 67 15
100 24 33 9 78 20 100 25 65 14 133 35 141 43 4 4 23 7 43 7 20 1 47 7 61 15
14 8 42 14 62 15 20 0 40 5 43 10 3 6 18 10 32 10 14 0 48 7 77 16 92 29 112
34 137 34 13 0 33 7 43 15 11 8 29 15 41 15 26 0 53 31 71 84 8 22 18 50 23
61 11 26 26 75 46 155 10 36 23 79 31 97 8 17 14 42 14 56 0 14 5 29 10 32 6
3 10 21 10 40 0 19 4 36 9 39 5 4 12 30 16 59 4 28 10 57 14 62 6 10 26 96 37
160 3 17 9 39 13 50 8 20 25 97 41 185 5 25 13 63 19 85 6 22 11 57 11 77 0
20 5 40 10 43 6 3 10 27 10 53 0 26 5 63 10 82 13 42 27 134 40 250 5 46 12
91 16 100 7 17 19 107 34 263 5 59 14 116 19 125 4 9 12 60 16 112 9 125 20
256 33 410 32 365 46 1248 22 1422 -5 40 -15 150 -20 243 -14 216 -34 422 -65
640 -8 61 -19 142 -25 180 -5 39 -14 90 -19 115 -6 25 -10 62 -11 82 0 20 -5
38 -11 40 -6 2 -12 24 -13 48 -3 57 -27 160 -38 160 -4 0 -8 -49 -8 -110z"/>
<path d="M9510 2588 c-36 -4 -123 -12 -195 -17 -71 -5 -173 -14 -225 -20 -195
-23 -468 -53 -560 -61 -53 -5 -108 -14 -123 -19 -16 -6 -58 -11 -94 -11 -36 0
-82 -4 -102 -9 -41 -11 -201 -35 -341 -51 -52 -6 -115 -16 -140 -22 -25 -6
-67 -14 -95 -18 -27 -5 -79 -13 -115 -20 -36 -6 -87 -15 -115 -20 -27 -5 -75
-14 -105 -20 -63 -13 -141 -25 -252 -39 -42 -5 -83 -13 -90 -17 -7 -5 -35 -12
-63 -15 -27 -4 -70 -12 -95 -18 -48 -11 -235 -48 -310 -61 -126 -22 -161 -30
-179 -39 -11 -6 -31 -11 -45 -11 -14 0 -45 -4 -68 -10 -24 -5 -65 -14 -93 -20
-27 -6 -99 -23 -160 -36 -60 -14 -132 -29 -160 -33 -27 -5 -77 -16 -110 -25
-33 -9 -84 -19 -112 -23 -29 -3 -53 -10 -53 -14 0 -5 -12 -9 -28 -9 -15 0 -52
-9 -82 -20 -30 -11 -65 -20 -77 -20 -12 0 -42 -6 -65 -14 -66 -21 -118 -34
-178 -46 -30 -7 -77 -18 -105 -25 -65 -17 -161 -40 -270 -65 -22 -5 -69 -16
-105 -25 -36 -9 -85 -20 -110 -25 -25 -4 -74 -16 -110 -25 -92 -23 -137 -33
-197 -44 -29 -5 -58 -13 -65 -17 -7 -4 -30 -11 -53 -15 -22 -4 -69 -15 -105
-24 -116 -29 -134 -33 -195 -45 -33 -7 -69 -16 -80 -20 -47 -17 -163 -43 -255
-56 -19 -2 -57 -11 -85 -19 -100 -28 -133 -35 -163 -35 -17 0 -41 -4 -54 -9
-13 -5 -54 -16 -93 -24 -38 -8 -124 -27 -190 -41 -66 -15 -140 -32 -165 -38
-25 -6 -63 -13 -85 -15 -22 -3 -54 -11 -72 -19 -17 -8 -47 -14 -66 -14 -36 0
-108 -13 -182 -32 -47 -12 -152 -30 -340 -57 -38 -6 -79 -15 -90 -20 -11 -6
-40 -12 -65 -14 -25 -3 -85 -12 -135 -22 -49 -9 -112 -20 -140 -25 -58 -8
-162 -27 -223 -41 -23 -5 -59 -9 -80 -10 -20 0 -59 -8 -87 -18 -50 -18 -48
-18 329 -24 209 -4 1791 -7 3517 -7 l3137 0 34 27 c84 70 144 127 446 429 177
178 322 328 322 333 0 6 6 14 13 18 6 4 52 53 102 108 49 55 92 102 95 105 3
3 28 32 56 65 49 58 234 274 278 325 12 14 35 43 51 65 32 42 49 63 78 97 17
22 23 54 10 60 -5 2 -37 0 -73 -4z"/>
</g>
</svg>
